<svg xmlns="http://www.w3.org/2000/svg" version="1.1" xmlns:xlink="http://www.w3.org/1999/xlink" xmlns:svgjs="http://svgjs.dev/svgjs" width="100%" height="100%" viewBox="0 0 1000 600"><rect width="1000" height="600" x="0" y="0" fill="#96351e"/><g><rect width="333.3333333333333" height="333.3333333333333" rx="13.333333333333334" ry="13.333333333333334" y="242.19813450670242" fill="#dbb98f" transform="matrix(0.5682440371371155,0,0,0.5682440371371155,0,67.66500895750345)" x="219.9759063720703"/><path d="M361.0858326553681 477.980575172149L367.1238467090485 465.2410290369112Q372.5425772700438 468.58073644389196 379.70857197111513 468.58073644389196Q386.8745666721864 468.58073644389196 390.45756402272207 463.16200588289666Q394.04056137325773 457.76539258949725 394.04056137325773 449.00695462152123L394.04056137325773 449.00695462152123L394.04056137325773 333.8644595172706L412.1988380694909 333.8644595172706L412.1988380694909 449.00695462152123Q412.1988380694909 466.9882931769872 404.3914426081385 475.4370893986206Q396.58404714678613 483.8637683526582 380.3499727313962 483.8637683526582L380.3499727313962 483.8637683526582Q375.0860630435722 483.8637683526582 370.308733242858 482.4482632265207Q365.53140344214376 481.0106408327872 363.29755941495796 479.41819756588245L363.29755941495796 479.41819756588245L361.0858326553681 477.980575172149Z " fill="#96351e" transform="matrix(0.5682440371371155,0,0,0.5682440371371155,0,67.66500895750345)"/><path d="M658.774120023018 481.5473879687432L636.6431107455369 481.5473879687432L636.6431107455369 341.63622687793634L715.7209853589752 341.63622687793634L715.7209853589752 360.2856505495697L658.774120023018 360.2856505495697L658.774120023018 405.5732524612931L707.9481430761526 405.5732524612931L705.2222504700239 423.06214759764396L658.774120023018 423.06214759764396L658.774120023018 481.5473879687432ZM816.5790117857395 384.19793618353094L816.5790117857395 384.19793618353094L816.5790117857395 456.8794093350631Q816.5790117857395 463.6806463325329 818.1173868208814 465.893747260281Q819.6827508917276 468.13383722373334 825.7013058537742 468.13383722373334L825.7013058537742 468.13383722373334L826.4839878891974 480.38685943346064Q821.6259614624332 482.1411467542366 816.1741762501757 482.1411467542366L816.1741762501757 482.1411467542366Q801.0333272200942 482.1411467542366 798.1185113640357 468.32276047366304L798.1185113640357 468.32276047366304Q787.8086997250141 483.8684450393083 767.7018681253514 483.8684450393083Q747.5950365256888 483.8684450393083 737.7710275293435 468.9165192591564Q727.9740075687025 453.96459347900463 727.9740075687025 430.34918723779015Q727.9740075687025 406.73378099657566 741.3605692780081 391.08014028811345Q754.774120023018 375.45348861535547 777.3099648360627 375.45348861535547L777.3099648360627 375.45348861535547Q786.4592479398018 375.45348861535547 798.6043140067121 378.260348328597Q810.7493800736224 381.09419707754273 816.5790117857395 384.19793618353094ZM750.1050168461836 431.9955184157491Q750.1050168461836 450.8338653373122 755.8536814511878 459.2004664056282Q761.5753570204878 467.56706747394423 772.4519384092986 467.56706747394423Q783.3555088338136 467.56706747394423 789.455030902973 459.8751922982343Q795.5815420078367 452.2103061582287 795.5815420078367 440.92888923385425L795.5815420078367 440.92888923385425L795.5815420078367 394.2918355369186Q787.9976229749437 391.7818552164238 778.2815701214155 391.7818552164238L778.2815701214155 391.7818552164238Q763.5185675911935 391.7818552164238 756.8252867365406 402.4695133553049Q750.1050168461836 413.15717149418595 750.1050168461836 431.9955184157491ZM896.8174149344603 481.5473879687432L878.1679912628268 481.5473879687432L836.9827227781487 380.50043829204935L857.386433770558 376.80294040056776L876.6296162276849 425.9769634537024Q887.101362080932 454.1535167289344 887.5061976164957 458.2288611202754L887.5061976164957 458.2288611202754L888.8556494017079 458.2288611202754Q889.2604849372716 454.3424399788641 899.9481430761526 425.9769634537024L899.9481430761526 425.9769634537024L917.6259614624332 376.80294040056776L938.0296724548426 380.50043829204935L896.8174149344603 481.5473879687432ZM971.442098656698 333.86338459511376L971.442098656698 333.86338459511376Q976.3001250834621 333.86338459511376 979.6197764750844 336.8861565939892Q982.9124388310023 339.8819395571604 982.9124388310023 345.9004945192071L982.9124388310023 345.9004945192071Q982.9124388310023 358.5313632287938 969.6878113359222 358.5313632287938L969.6878113359222 358.5313632287938Q965.0456971947921 358.5313632287938 961.9149690530995 355.53558026562257Q958.8112299471114 352.51280826674713 958.8112299471114 346.68317655463017L958.8112299471114 346.68317655463017Q958.8112299471114 333.86338459511376 971.442098656698 333.86338459511376ZM981.347074760156 481.5473879687432L960.3765940179576 481.5473879687432L960.3765940179576 379.1509865068371L981.347074760156 376.4250939007083L981.347074760156 481.5473879687432ZM1056.4575611250702 483.8684450393083Q1034.2185957047723 483.8684450393083 1022.1544967449747 468.7275960092268Q1010.1173868208813 453.55975794344096 1010.1173868208813 429.9443517022264Q1010.1173868208813 406.3559344967162 1022.9371787803979 390.8912170381837Q1035.7569707399143 375.45348861535547 1058.5087278385931 375.45348861535547L1058.5087278385931 375.45348861535547Q1077.5359980100857 375.45348861535547 1093.4865181112946 383.60417739803756L1093.4865181112946 383.60417739803756L1087.6568863991774 397.8004101784705Q1074.4322589040976 391.7818552164238 1062.7729954798638 391.7818552164238L1062.7729954798638 391.7818552164238Q1047.2273109142184 391.7818552164238 1039.7513480241425 402.06467781974123Q1032.2753851340667 412.37448945876287 1032.2753851340667 427.9201740244081L1032.2753851340667 427.9201740244081Q1032.2753851340667 467.56706747394423 1062.9619187297935 467.56706747394423L1062.9619187297935 467.56706747394423Q1074.4322589040976 467.56706747394423 1086.8742043637544 460.95475372640414L1086.8742043637544 460.95475372640414L1093.6754413612243 474.5572277213437Q1078.7235155810727 483.8684450393083 1056.4575611250702 483.8684450393083ZM1158.7729954798638 375.45348861535547L1158.7729954798638 375.45348861535547Q1177.8272546870608 375.45348861535547 1190.2422111110136 388.7590832175483Q1202.6841565706704 402.06467781974123 1202.6841565706704 427.9201740244081Q1202.6841565706704 453.74868119337066 1189.972320753971 468.8085631163395Q1177.2334959015675 483.8684450393083 1151.782835232464 483.8684450393083L1151.782835232464 483.8684450393083Q1132.728576025267 483.8684450393083 1120.28663056561 470.3739271871857Q1107.8716741416574 456.8794093350631 1107.8716741416574 431.0239131303963Q1107.8716741416574 405.1684169257294 1120.583509958357 390.3244472883946Q1133.3223348107604 375.45348861535547 1158.7729954798638 375.45348861535547ZM1130.0026834191385 431.1318692732133Q1130.0026834191385 450.6449420873825 1136.5340300595658 459.09251026281123Q1143.0383876642886 467.56706747394423 1156.0471028737347 467.56706747394423Q1169.0828071188853 467.56706747394423 1174.8044826881853 457.44617908485225Q1180.5261582574853 447.3522797314646 1180.5261582574853 427.8122178815911Q1180.5261582574853 408.2991450674218 1174.021800652762 400.04050014192285Q1167.5174430480392 391.7818552164238 1156.0471028737347 391.7818552164238L1156.0471028737347 391.7818552164238Q1141.4730235934426 391.7818552164238 1135.7513480241425 401.6868313198818Q1130.0026834191385 411.5918074233398 1130.0026834191385 431.1318692732133ZM1231.4544686313957 481.5473879687432L1231.4544686313957 410.80912538791665Q1231.4544686313957 393.3202302515658 1227.945893989844 379.3399097567668L1227.945893989844 379.3399097567668L1244.2742605909125 377.20777593613144L1247.9717584823939 386.9238287896597Q1264.3001250834623 375.45348861535547 1281.3841846842492 375.45348861535547L1281.3841846842492 375.45348861535547Q1316.7668104925147 375.45348861535547 1316.7668104925147 413.5350179940454L1316.7668104925147 413.5350179940454L1316.7668104925147 481.5473879687432L1295.769340714612 481.5473879687432L1295.769340714612 417.4214391354567Q1295.769340714612 391.7818552164238 1275.3656297222028 391.7818552164238L1275.3656297222028 391.7818552164238Q1263.5174430480392 391.7818552164238 1252.4249493735942 400.12146724903556L1252.4249493735942 400.12146724903556L1252.4249493735942 481.5473879687432L1231.4544686313957 481.5473879687432ZM1345.3212102676061 480.08998004071395Q1342.0285479116883 476.50043829204935 1342.0285479116883 471.45348861535547Q1342.0285479116883 466.3795499029574 1345.3212102676061 462.7900081542928Q1348.613872623524 459.2004664056282 1354.0656578357816 459.2004664056282Q1359.5174430480392 459.2004664056282 1362.810105403957 462.7900081542928Q1366.102767759875 466.3795499029574 1366.102767759875 471.45348861535547Q1366.102767759875 476.50043829204935 1362.810105403957 480.08998004071395Q1359.5174430480392 483.67952178937855 1354.0656578357816 483.67952178937855Q1348.613872623524 483.67952178937855 1345.3212102676061 480.08998004071395ZM1406.3434199949047 333.86338459511376L1406.3434199949047 333.86338459511376Q1411.2014464216686 333.86338459511376 1414.4941087775865 336.8861565939892Q1417.8137601692088 339.8819395571604 1417.8137601692088 345.9004945192071L1417.8137601692088 345.9004945192071Q1417.8137601692088 358.5313632287938 1404.5891326741285 358.5313632287938L1404.5891326741285 358.5313632287938Q1399.9200294972939 358.5313632287938 1396.8162903913058 355.53558026562257Q1393.7125512853177 352.51280826674713 1393.7125512853177 346.68317655463017L1393.7125512853177 346.68317655463017Q1393.7125512853177 333.86338459511376 1406.3434199949047 333.86338459511376ZM1416.2483960983623 481.5473879687432L1395.2509263204597 481.5473879687432L1395.2509263204597 379.1509865068371L1416.2483960983623 376.4250939007083L1416.2483960983623 481.5473879687432ZM1495.9200294972943 375.45348861535547L1495.9200294972943 375.45348861535547Q1514.9742887044913 375.45348861535547 1527.3892451284441 388.7590832175483Q1539.831190588101 402.06467781974123 1539.831190588101 427.9201740244081Q1539.831190588101 453.74868119337066 1527.1193547714015 468.8085631163395Q1514.380529918998 483.8684450393083 1488.9298692498946 483.8684450393083L1488.9298692498946 483.8684450393083Q1469.8756100426976 483.8684450393083 1457.4336645830404 470.3739271871857Q1445.018708159088 456.8794093350631 1445.018708159088 431.0239131303963Q1445.018708159088 405.1684169257294 1457.7305439757874 390.3244472883946Q1470.469368828191 375.45348861535547 1495.9200294972943 375.45348861535547ZM1467.1497174365686 431.1318692732133Q1467.1497174365686 450.6449420873825 1473.6810640769963 459.09251026281123Q1480.1854216817192 467.56706747394423 1493.1941368911653 467.56706747394423Q1506.2298411363158 467.56706747394423 1511.9515167056156 457.44617908485225Q1517.673192274916 447.3522797314646 1517.673192274916 427.8122178815911Q1517.673192274916 408.2991450674218 1511.1688346701926 400.04050014192285Q1504.6644770654693 391.7818552164238 1493.1941368911653 391.7818552164238L1493.1941368911653 391.7818552164238Q1478.6200576108731 391.7818552164238 1472.8983820415729 401.6868313198818Q1467.1497174365686 411.5918074233398 1467.1497174365686 431.1318692732133Z " fill="#dbb98f" transform="matrix(0.5682440371371155,0,0,0.5682440371371155,0,67.66500895750345)"/></g></svg>